# xmcd
#
# Track frame offsets: 
#        150
#        23210
#        48427
#        60978
#        80028
#        102266
#        128148
#        144217
#        171111
#        184996
#
# Disc length: 2820 seconds
#
# Revision: 3
# Processed by: cddbd v1.5.2PL0 Copyright (c) Steve Scherf et al.
# Submitted via: ExactAudioCopy v1.0b3
#
DISCID=810b020a
DTITLE=Gallagher, Rory - Deuce
DYEAR=1971
DGENRE=Blues
TTITLE0=Used To Be
TTITLE1=I'm Not Awake Yet
TTITLE2=Don't Know Where I'm Going
TTITLE3=Maybe I Will
TTITLE4=Whole Lot Of People
TTITLE5=In Your Town
TTITLE6=Should've Learnt My Lesson
TTITLE7=There's A Light
TTITLE8=Out Of My Mind
TTITLE9=Crest Of A Wave
EXTD=
EXTT0=
EXTT1=
EXTT2=
EXTT3=
EXTT4=
EXTT5=
EXTT6=
EXTT7=
EXTT8=
EXTT9=
PLAYORDER=
